<?xml version="1.0" encoding="UTF-8" ?>
<!DOCTYPE svg PUBLIC "-//W3C//DTD SVG 1.1//EN" "http://www.w3.org/Graphics/SVG/1.1/DTD/svg11.dtd">
<svg width="1155pt" height="1089pt" viewBox="0 0 1155 1089" version="1.1" xmlns="http://www.w3.org/2000/svg">
<g id="#000000ff">
<path fill="#000000" opacity="1.00" d=" M 9.91 14.96 C 39.46 7.73 69.62 2.88 100.00 1.00 C 158.25 -2.72 217.51 4.97 272.15 25.86 C 327.44 46.79 377.42 81.09 417.66 124.32 C 448.27 157.07 473.46 194.74 492.98 235.06 C 525.71 302.62 542.67 377.31 545.70 452.17 C 526.76 416.53 505.06 382.36 481.10 349.89 C 460.96 322.83 439.16 296.86 414.43 273.86 C 441.96 306.00 466.12 341.48 482.49 380.65 C 496.84 414.98 504.67 452.81 499.86 490.01 C 467.91 499.48 434.38 503.81 401.08 502.20 C 366.58 500.60 332.47 492.61 300.59 479.41 C 265.27 464.82 232.66 444.04 203.61 419.28 C 155.15 377.86 116.07 325.76 88.55 268.32 C 68.09 225.26 53.87 178.77 50.58 131.05 C 49.32 102.34 43.35 73.46 30.36 47.68 C 25.45 38.44 19.66 29.13 10.89 23.09 C 7.65 20.73 3.60 20.17 0.00 18.59 L 0.00 17.93 C 3.18 16.55 6.55 15.75 9.91 14.96 Z" />
<path fill="#000000" opacity="1.00" d=" M 814.79 182.77 C 860.69 168.83 909.60 166.54 957.04 172.41 C 1024.50 180.87 1089.67 205.47 1146.73 242.29 C 1149.18 243.55 1152.09 243.36 1154.73 244.06 C 1134.13 250.15 1114.87 260.57 1098.41 274.37 C 1077.19 291.99 1060.33 314.07 1044.48 336.46 C 1027.42 360.67 1011.21 385.53 992.60 408.60 C 977.09 427.90 959.89 445.92 940.50 461.36 C 921.08 476.87 899.57 489.78 876.75 499.63 C 837.26 513.33 794.63 517.69 753.14 512.74 C 721.82 508.88 690.76 500.57 662.61 486.14 C 664.91 448.64 675.52 411.38 695.36 379.33 C 711.02 353.65 732.28 331.73 756.22 313.66 C 727.67 329.00 701.22 348.41 678.39 371.44 C 653.65 396.38 633.74 426.07 620.13 458.46 C 617.84 439.85 619.19 420.95 622.28 402.52 C 628.47 366.60 642.88 332.33 662.91 301.96 C 681.30 274.04 704.33 249.34 729.93 227.91 C 754.37 206.73 784.03 192.27 814.79 182.77 Z" />
<path fill="#000000" opacity="1.00" d=" M 553.71 485.89 C 567.04 477.49 583.79 474.79 599.10 478.54 C 617.62 482.90 633.54 496.67 640.62 514.31 C 643.55 521.47 645.03 529.22 645.01 536.96 C 645.00 562.68 645.02 588.40 645.00 614.12 C 605.13 620.23 565.30 626.68 525.39 632.51 C 525.24 604.02 525.37 575.53 525.33 547.04 C 525.40 539.73 524.91 532.33 526.46 525.13 C 529.59 509.02 539.76 494.50 553.71 485.89 Z" />
<path fill="#000000" opacity="1.00" d=" M 804.52 616.76 C 831.04 613.25 858.44 626.77 872.97 649.00 C 882.94 663.95 886.88 683.08 882.42 700.61 C 877.91 719.22 863.79 735.08 845.87 741.79 C 837.95 745.02 829.36 745.71 821.00 747.00 C 673.96 768.45 526.91 789.90 379.87 811.35 C 370.28 812.67 360.63 814.76 350.90 813.60 C 321.61 810.93 295.00 788.70 288.02 759.99 C 283.84 743.71 286.45 725.70 295.71 711.61 C 305.03 697.01 321.02 687.15 338.11 684.78 C 493.58 662.10 649.05 639.40 804.52 616.76 Z" />
<path fill="#000000" opacity="1.00" d=" M 766.50 789.71 C 792.88 785.51 820.42 803.03 828.39 828.41 C 833.06 842.43 831.26 858.60 822.89 870.88 C 815.50 882.02 803.18 889.57 789.99 891.48 C 672.84 908.58 555.70 925.66 438.55 942.75 C 428.04 943.96 417.55 946.88 406.91 945.53 C 388.71 943.44 371.91 932.03 363.15 915.97 C 356.51 903.93 354.59 889.15 358.89 876.00 C 363.08 862.65 373.58 851.54 386.61 846.48 C 393.12 843.77 400.21 843.19 407.11 842.14 C 526.90 824.66 646.70 807.19 766.50 789.71 Z" />
<path fill="#000000" opacity="1.00" d=" M 695.53 959.72 C 709.12 957.56 723.60 961.79 733.68 971.21 C 743.81 980.42 749.18 994.32 748.47 1007.93 C 747.67 1028.07 734.11 1046.95 715.39 1054.35 C 708.60 1057.23 701.18 1057.75 693.98 1058.88 C 628.16 1068.49 562.33 1078.09 496.50 1087.70 C 489.35 1088.97 481.95 1089.49 474.82 1087.79 C 460.18 1084.67 447.56 1073.77 442.28 1059.78 C 437.04 1046.40 438.37 1030.86 445.14 1018.27 C 452.66 1003.92 466.99 993.13 483.11 990.74 C 553.91 980.38 624.72 970.07 695.53 959.72 Z" />
</g>
</svg>
