<?xml version="1.0" encoding="UTF-8" ?>
<!DOCTYPE svg PUBLIC "-//W3C//DTD SVG 1.1//EN" "http://www.w3.org/Graphics/SVG/1.1/DTD/svg11.dtd">
<svg width="1112pt" height="1112pt" viewBox="0 0 1112 1112" version="1.1" xmlns="http://www.w3.org/2000/svg">
<g id="#000000ff">
<path fill="#000000" opacity="1.00" d=" M 513.49 1.81 C 600.90 -4.88 689.90 9.19 770.73 43.22 C 838.29 71.50 900.08 113.40 951.51 165.54 C 1016.63 231.39 1065.00 313.72 1090.37 402.81 C 1115.82 491.59 1118.56 586.72 1098.58 676.87 C 1082.72 748.59 1052.29 817.02 1009.80 876.93 C 968.43 935.37 915.69 985.73 855.38 1024.33 C 788.88 1067.02 713.13 1095.19 634.89 1106.23 C 542.09 1119.45 445.95 1109.09 358.35 1075.61 C 258.67 1037.84 170.57 970.48 107.64 884.47 C 60.69 820.59 27.66 746.52 11.71 668.85 C -9.63 565.55 -1.12 456.18 36.68 357.65 C 62.53 289.91 101.91 227.39 151.68 174.67 C 201.50 121.82 261.73 78.81 327.97 49.00 C 386.44 22.62 449.53 6.61 513.49 1.81 M 421.99 289.02 C 398.64 291.62 375.33 295.62 352.95 302.90 C 321.33 312.16 290.78 325.03 262.03 341.13 C 213.72 368.21 170.00 404.27 136.76 448.76 C 125.67 463.54 111.50 475.53 98.48 488.50 C 92.73 494.58 86.40 501.24 85.29 509.91 C 84.43 517.60 89.14 524.46 94.27 529.70 C 99.49 535.41 106.67 538.87 113.97 541.11 C 127.16 545.16 141.05 546.21 154.79 546.40 C 153.12 565.42 153.68 585.45 162.07 602.98 C 169.41 618.72 183.06 630.43 197.62 639.34 C 187.96 644.47 176.27 648.76 171.28 659.30 C 167.08 669.22 170.59 681.38 178.66 688.28 C 187.92 696.35 200.28 699.46 212.11 701.52 C 232.59 704.59 253.44 703.90 274.00 702.05 C 292.27 700.31 310.42 697.17 328.15 692.40 C 366.13 682.47 402.51 666.95 436.73 647.81 C 450.90 640.15 464.17 630.82 478.93 624.30 C 476.08 616.00 470.91 608.82 467.22 600.92 C 460.56 603.62 454.58 607.66 448.58 611.55 C 441.44 616.27 433.86 620.26 426.41 624.45 C 383.19 648.71 335.90 665.81 287.10 674.55 C 267.61 677.89 247.74 680.36 227.95 678.70 C 217.21 677.75 206.14 675.41 197.23 668.99 C 220.35 658.14 243.51 647.39 266.65 636.59 C 279.74 630.58 292.80 624.49 305.36 617.41 C 323.13 607.74 340.75 597.74 357.73 586.72 C 386.76 568.04 413.42 545.98 439.40 523.33 C 442.72 520.36 445.11 516.32 445.94 511.93 C 447.07 505.66 447.07 499.25 447.93 492.95 C 449.68 479.40 454.17 466.33 460.07 454.05 C 466.63 440.30 477.04 429.00 486.13 416.93 C 459.60 431.10 433.20 445.52 406.64 459.63 C 352.20 486.40 293.75 504.86 233.96 514.96 C 211.51 518.78 188.83 521.62 166.04 521.78 C 148.18 521.71 129.54 520.76 113.30 512.57 C 115.17 509.70 117.29 507.00 119.66 504.53 C 131.64 491.90 144.90 480.42 155.68 466.68 C 163.52 456.89 170.81 446.56 179.96 437.91 C 185.97 432.28 191.84 426.50 197.48 420.51 C 207.85 409.47 219.42 399.61 231.64 390.68 C 254.40 374.11 279.08 360.29 304.72 348.69 C 349.29 328.82 397.10 314.80 446.08 312.74 C 477.72 311.55 510.53 315.99 538.56 331.51 C 554.11 340.06 567.60 352.24 577.82 366.73 C 586.17 364.96 594.52 363.16 602.87 361.34 C 600.36 350.16 592.87 340.98 584.70 333.30 C 573.03 322.47 559.54 313.74 545.34 306.61 C 527.45 297.66 507.84 292.58 488.06 290.01 C 466.16 287.41 443.96 286.99 421.99 289.02 M 488.30 365.30 C 431.91 399.53 371.32 426.96 308.21 446.21 C 287.33 452.41 266.33 458.43 244.79 461.86 C 222.28 465.50 199.53 467.34 176.96 470.54 C 189.01 471.43 201.04 472.61 213.04 474.02 C 235.07 476.78 257.29 474.09 279.16 471.18 C 340.96 462.46 400.62 438.73 451.34 402.34 C 464.45 393.30 476.17 382.47 488.49 372.43 C 493.60 368.55 499.06 364.56 501.75 358.52 C 497.09 360.42 492.67 362.82 488.30 365.30 M 537.64 410.70 C 535.77 411.53 535.30 413.72 534.33 415.34 C 514.68 453.36 495.02 491.36 475.35 529.36 C 474.58 531.14 472.94 532.81 473.37 534.89 C 474.62 543.57 476.68 552.14 479.34 560.49 C 489.24 590.82 506.63 618.39 527.91 642.01 C 539.43 654.93 552.83 665.93 566.21 676.83 C 579.59 687.65 593.48 697.87 608.17 706.85 C 632.26 721.59 658.01 733.48 684.45 743.34 C 716.22 755.18 749.07 764.23 782.53 769.74 C 808.46 774.09 834.84 776.26 861.11 774.32 C 880.75 772.81 900.63 770.35 919.12 763.21 C 928.70 759.37 938.44 754.06 944.02 745.04 C 949.23 736.48 949.29 724.29 942.51 716.56 C 935.73 709.52 925.68 707.73 917.48 702.95 C 921.98 696.98 928.42 692.84 932.99 686.94 C 942.00 675.62 949.63 662.48 951.31 647.88 C 952.87 633.68 949.65 619.62 947.68 605.64 C 964.50 602.26 981.71 598.50 996.57 589.55 C 1004.52 584.68 1011.99 576.90 1012.06 567.00 C 1012.46 559.82 1008.80 553.15 1003.45 548.59 C 988.04 534.54 970.23 523.30 955.41 508.58 C 927.53 479.27 894.12 455.67 858.67 436.42 C 829.71 420.69 799.03 408.00 767.12 399.68 C 724.48 388.34 680.12 382.76 636.00 385.12 C 602.02 387.06 567.64 394.06 537.64 410.70 M 405.84 582.75 C 378.36 603.66 346.69 617.90 317.30 635.77 C 330.74 632.75 343.57 627.59 356.24 622.28 C 375.91 613.84 395.11 604.31 413.74 593.77 C 427.08 585.98 440.66 578.22 451.91 567.49 C 450.77 561.81 449.57 556.13 448.32 550.47 C 433.65 560.55 420.20 572.25 405.84 582.75 M 434.07 679.14 C 400.04 696.63 364.09 710.43 327.01 719.91 C 290.85 729.00 253.10 733.58 215.92 729.05 C 198.10 726.73 179.79 721.97 165.55 710.48 C 158.35 704.93 153.31 697.21 146.66 691.10 C 141.93 694.49 137.27 698.02 133.14 702.14 C 127.30 708.04 121.82 715.38 121.67 724.04 C 121.46 733.25 127.52 741.10 133.97 747.04 C 147.08 758.63 163.02 766.46 179.15 772.93 C 213.52 786.33 249.69 794.38 285.91 800.89 C 333.93 809.40 382.45 814.81 431.06 818.59 C 477.27 822.11 523.61 823.97 569.95 824.22 C 641.75 824.50 713.66 821.29 784.93 812.28 C 806.83 809.64 828.57 805.86 850.32 802.26 C 826.41 801.51 802.49 799.77 778.89 795.70 C 720.10 785.74 662.60 767.05 609.97 738.91 C 583.91 724.75 558.75 708.37 537.43 687.61 C 523.19 673.24 508.90 658.92 494.60 644.61 C 474.80 656.76 454.76 668.56 434.07 679.14 M 960.35 694.85 C 968.73 702.99 973.89 714.34 974.39 726.02 C 974.90 740.19 970.13 754.34 961.80 765.75 C 957.00 772.51 950.44 778.07 942.68 781.11 C 955.83 778.94 968.23 773.77 980.24 768.15 C 993.27 761.87 1006.15 754.77 1016.81 744.85 C 1023.20 738.78 1027.83 729.99 1026.61 720.98 C 1025.41 712.63 1019.82 705.72 1013.64 700.34 C 1001.16 689.67 986.03 682.81 970.98 676.62 C 967.39 682.67 963.87 688.76 960.35 694.85 Z" />
<path fill="#000000" opacity="1.00" d=" M 577.56 461.24 C 587.20 464.06 596.13 468.72 605.35 472.64 C 639.40 486.97 674.30 499.39 709.99 508.98 C 747.69 519.28 785.99 527.99 824.97 531.62 C 853.52 534.46 882.26 534.29 910.91 533.53 C 904.22 537.52 896.49 539.07 888.94 540.50 C 815.33 553.41 737.94 545.15 669.12 515.83 C 654.67 509.75 640.79 502.43 627.03 494.95 C 613.89 487.77 601.32 479.60 589.15 470.90 C 585.07 467.94 581.14 464.78 577.56 461.24 Z" />
<path fill="#000000" opacity="1.00" d=" M 553.27 540.14 C 558.10 546.61 561.92 553.76 566.67 560.29 C 576.46 572.76 586.08 585.47 597.45 596.58 C 622.38 621.59 651.18 642.43 681.36 660.62 C 706.48 675.87 733.09 688.51 760.14 699.92 C 773.05 705.19 785.83 711.02 799.45 714.28 C 784.15 714.76 769.27 710.49 754.76 706.20 C 723.52 696.43 693.31 683.58 664.08 668.90 C 647.00 660.48 631.70 648.97 617.09 636.85 C 596.09 619.08 576.92 598.39 564.21 573.79 C 558.85 563.24 554.89 551.89 553.27 540.14 Z" />
</g>
</svg>
